<svg width="41" height="41" viewBox="0 0 41 41" fill="none" xmlns="http://www.w3.org/2000/svg">
<path d="M20.5 1.61511L24.6271 14.2917L24.7395 14.6369H25.1025H38.4553L27.6536 22.4691L27.359 22.6827L27.4716 23.0287L31.5981 35.7032L20.7935 27.869L20.5 27.6561L20.2065 27.869L9.40194 35.7032L13.5284 23.0287L13.641 22.6827L13.3464 22.4691L2.54467 14.6369H15.8975H16.2605L16.3729 14.2917L20.5 1.61511Z" stroke="url(#paint0_linear_1844_6484)"/>
<path fill-rule="evenodd" clip-rule="evenodd" d="M21 4.53904L20.4999 3L16.5709 15.0922L3.85645 15.0922L14.1427 22.5656L10.2137 34.6578L20.4999 27.1844L21 27.5477V4.53904Z" fill="url(#paint1_linear_1844_6484)"/>
<path fill-rule="evenodd" clip-rule="evenodd" d="M21 4.53906L24.429 15.0924L37.1436 15.0924L26.8573 22.5658L30.7863 34.658L21 27.5479V4.53906Z" fill="#F2F2F2"/>
<defs>
<linearGradient id="paint0_linear_1844_6484" x1="41" y1="20.1863" x2="5.55592e-07" y2="20.1863" gradientUnits="userSpaceOnUse">
<stop stop-color="#CFEFAB"/>
<stop offset="0.369792" stop-color="#9FF89E"/>
<stop offset="1" stop-color="#8AE0DF"/>
</linearGradient>
<linearGradient id="paint1_linear_1844_6484" x1="21" y1="18.6178" x2="3.85645" y2="18.6178" gradientUnits="userSpaceOnUse">
<stop stop-color="#CFEFAB"/>
<stop offset="0.369792" stop-color="#9FF89E"/>
<stop offset="1" stop-color="#8AE0DF"/>
</linearGradient>
</defs>
</svg>
