<svg width="58" height="58" viewBox="0 0 58 58" fill="none" xmlns="http://www.w3.org/2000/svg">
<rect width="58" height="58" rx="10" transform="matrix(1 -9.50914e-08 -8.03726e-08 -1 0 58)" fill="url(#paint0_linear_1751_22651)"/>
<g clip-path="url(#clip0_1751_22651)">
<path d="M31.5263 41.5607V19.9064L40.9111 29.3669C41.6611 30.1229 42.8919 30.1229 43.6419 29.3669C43.8202 29.1875 43.9616 28.9745 44.0581 28.74C44.1546 28.5054 44.2043 28.254 44.2043 28.0001C44.2043 27.7462 44.1546 27.4948 44.0581 27.2603C43.9616 27.0258 43.8202 26.8128 43.6419 26.6334L30.9686 13.858C30.7907 13.6782 30.5794 13.5357 30.3467 13.4384C30.1141 13.3411 29.8647 13.291 29.6128 13.291C29.361 13.291 29.1116 13.3411 28.8789 13.4384C28.6463 13.5357 28.435 13.6782 28.257 13.858L15.5645 26.614C15.3865 26.7935 15.2452 27.0066 15.1489 27.2411C15.0525 27.4756 15.0029 27.7269 15.0029 27.9807C15.0029 28.2346 15.0525 28.4859 15.1489 28.7204C15.2452 28.9549 15.3865 29.168 15.5645 29.3475C15.7426 29.527 15.9539 29.6693 16.1866 29.7665C16.4192 29.8636 16.6685 29.9136 16.9203 29.9136C17.1721 29.9136 17.4214 29.8636 17.6541 29.7665C17.8867 29.6693 18.0981 29.527 18.2761 29.3475L27.6801 19.9064V41.5607C27.6801 42.627 28.5455 43.4993 29.6032 43.4993C30.6609 43.4993 31.5263 42.627 31.5263 41.5607Z" fill="black"/>
</g>
<defs>
<linearGradient id="paint0_linear_1751_22651" x1="58" y1="28.6133" x2="7.8596e-07" y2="28.6133" gradientUnits="userSpaceOnUse">
<stop stop-color="#CFEFAB"/>
<stop offset="0.369792" stop-color="#9FF89E"/>
<stop offset="1" stop-color="#8AE0DF"/>
</linearGradient>
<clipPath id="clip0_1751_22651">
<rect x="12.083" y="13.291" width="35.0417" height="36.25" rx="10" fill="white"/>
</clipPath>
</defs>
</svg>
